<svg xmlns="http://www.w3.org/2000/svg" xmlns:xlink="http://www.w3.org/1999/xlink" id="Layer_1" x="0px" y="0px" viewBox="0 0 177 51" style="enable-background:new 0 0 177 51;" xml:space="preserve">
<style type="text/css">
	.st0{fill:#FFFFFF;}
	.st1{fill:#0367AF;}
	.st2{fill:#FFFFFF;stroke:#FFFFFF;}
	.st3{fill:#0367AF;stroke:#FFFFFF;}
</style>
<path class="st0" d="M24,6.5h135.5c9.7,0,17.5,7.8,17.5,17.5s-7.8,17.5-17.5,17.5H24V6.5z"></path>
<path class="st1" d="M76.7,34.5h-4.2V18.2l-5.1,1.6v-3.4l8.8-3.2h0.5V34.5z M95.2,12.9v3.5h-0.4c-1.9,0-3.5,0.5-4.6,1.5  c-1.2,1-1.9,2.3-2.1,4c1.1-1.2,2.6-1.7,4.3-1.7c1.9,0,3.3,0.7,4.4,2c1.1,1.3,1.6,3.1,1.6,5.2c0,1.4-0.3,2.6-0.9,3.8  c-0.6,1.1-1.4,2-2.5,2.6c-1.1,0.6-2.3,0.9-3.7,0.9c-2.2,0-4.1-0.8-5.4-2.3c-1.4-1.6-2.1-3.6-2.1-6.3v-1.5c0-2.3,0.4-4.4,1.3-6.1  c0.9-1.8,2.1-3.1,3.8-4.1c1.6-1,3.5-1.5,5.7-1.5H95.2z M91,23.6c-0.7,0-1.3,0.2-1.9,0.5c-0.6,0.4-1,0.8-1.2,1.4v1.3  c0,1.4,0.3,2.5,0.8,3.3c0.6,0.8,1.3,1.2,2.3,1.2c0.9,0,1.6-0.4,2.2-1.1c0.6-0.7,0.8-1.7,0.8-2.8c0-1.2-0.3-2.1-0.8-2.8  S92,23.6,91,23.6z M115.4,15.5l-8.2,19h-4.5l8.3-17.9h-10.6v-3.4h15.1V15.5z M132.7,34.5h-14.6v-2.9l6.9-7.4c0.9-1,1.6-1.9,2.1-2.7  c0.5-0.8,0.7-1.5,0.7-2.2c0-0.9-0.2-1.7-0.7-2.2c-0.5-0.5-1.2-0.8-2.1-0.8c-1,0-1.7,0.3-2.3,1c-0.5,0.7-0.8,1.5-0.8,2.6h-4.2  c0-1.3,0.3-2.5,0.9-3.6c0.6-1.1,1.5-1.9,2.6-2.5c1.1-0.6,2.4-0.9,3.9-0.9c2.2,0,3.9,0.5,5.1,1.6c1.2,1.1,1.8,2.5,1.8,4.5  c0,1.1-0.3,2.1-0.8,3.2c-0.5,1.1-1.5,2.4-2.8,3.8l-4.8,5.1h9.2V34.5z M149.9,15.5l-8.2,19h-4.5l8.3-17.9h-10.6v-3.4h15.1V15.5z"></path>
<circle class="st2" cx="26.1" cy="25.6" r="20.2"></circle>
<path class="st3" d="M42.3,7.7l0.4-0.4L42.3,7.7c4.6,4.6,7.2,10.9,7.2,17.5c0,6.6-2.6,12.9-7.2,17.5c-9.6,9.7-25.1,9.7-34.6,0  c-9.6-9.7-9.6-25.4,0-35C17.2-1.9,32.8-1.9,42.3,7.7z"></path>
<path class="st2" d="M23.6,35.8c-1.9-1.2-3.6-2.6-5.2-4.2c-1.4-1.4-2.7-3-3.9-4.7c-1.2-1.8-2.2-3.8-2.9-5.9l0,0  c-0.8-2.6-0.1-5.5,1.8-7.4l1.5-1.5c0,0,0,0,0,0c0.6-0.6,1.6-0.6,2.2,0c0,0,0,0,0,0l0,0c0,0,0,0,0,0l4.7,4.7c0,0,0,0,0,0  c0.6,0.6,0.6,1.6,0,2.2l0,0l0,0l0,0l-2.8,2.8l0,0c-0.6,0.6-0.7,1.6-0.2,2.3l0,0c1,1.4,2.1,2.6,3.2,3.8l0,0c1.3,1.3,2.7,2.5,4.3,3.6  L23.6,35.8z"></path>
<path class="st2" d="M23.6,35.8c2,1.3,4.2,2.3,6.6,3l0,0l0,0c2.4,0.6,5-0.2,6.8-2c0,0,0,0,0,0l1.1-1.2l0.1-0.1c0,0,0,0,0,0l0,0  c0,0,0,0,0,0c0.6-0.6,0.6-1.6,0-2.2c0,0,0,0,0,0l-4.7-4.7l0,0l0,0l0,0c-0.6-0.6-1.6-0.6-2.2,0l0,0l-2.7,2.7  c-0.6,0.6-1.5,0.7-2.2,0.2L23.6,35.8z"></path>
</svg>